<svg xmlns="http://www.w3.org/2000/svg" viewBox="0 0 64 64" width="64" height="64">
  <rect width="64" height="64" rx="16" fill="#7a6cf0"/>
  <path d="M32 14c-7.2 0-13 5.6-13 12.6 0 9 13 21.4 13 21.4s13-12.4 13-21.4C45 19.6 39.2 14 32 14Z" fill="#fff"/>
  <circle cx="32" cy="26.5" r="4.6" fill="#7a6cf0"/>
  <circle cx="44" cy="44" r="8" fill="#f08fb0"/>
  <path d="M44 47.5c-2-2.2-4.6-3-4.6-5.2 0-1.2 1-2 2.1-2 .9 0 1.7.5 2.5 1.6.8-1.1 1.6-1.6 2.5-1.6 1.1 0 2.1.8 2.1 2 0 2.2-2.6 3-4.6 5.2Z" fill="#fff"/>
</svg>
